<svg width="150" height="44" viewBox="0 0 150 44" fill="none" xmlns="http://www.w3.org/2000/svg">
<path d="M39.4891 43.9999C36.6366 43.9999 34.337 42.8541 33.0132 40.7711C31.1667 37.8682 31.3002 33.3765 33.4213 27.038C34.4761 23.8861 35.7454 21.1223 36.3471 19.8721C35.9992 13.8924 30.8922 9.13342 24.6645 9.13342C18.4368 9.13342 12.9612 14.2438 12.9612 20.5256V39.0493C12.9612 39.0493 13 42.0493 10 42.0493C7 42.0493 6.71094 39.0493 6.71094 39.0493V20.5256C6.71094 10.8887 14.7644 3.04932 24.6645 3.04932C30.817 3.04932 36.2549 6.07673 39.4929 10.6819C42.729 6.07673 48.1688 3.04932 54.3213 3.04932C64.2213 3.04932 72.2748 10.8887 72.2748 20.5256V39.0493C72.2748 39.0493 72 42.0493 69 42.0493C66 42.0493 66.0245 39.0493 66.0245 39.0493V20.5256C66.0245 14.2438 60.7746 9.13342 54.3213 9.13342C47.8679 9.13342 42.9866 13.8924 42.6368 19.8721C43.2385 21.1223 44.5078 23.8879 45.5626 27.038C47.6837 33.3765 47.8172 37.87 45.9707 40.7711C44.6469 42.8523 42.3454 43.9999 39.4929 43.9999H39.4891ZM39.4891 28.5425C38.1372 32.54 37.479 36.2392 38.3271 37.568C38.3872 37.6632 38.549 37.9158 39.4891 37.9158C40.4293 37.9158 40.591 37.6632 40.6512 37.568C41.4973 36.2374 40.8411 32.54 39.4891 28.5425Z" fill="#222222"/>
<path d="M24.6623 25.499C27.056 25.499 28.9965 23.6101 28.9965 21.28C28.9965 18.9499 27.056 17.061 24.6623 17.061C22.2686 17.061 20.3281 18.9499 20.3281 21.28C20.3281 23.6101 22.2686 25.499 24.6623 25.499Z" fill="#222222"/>
<path d="M10 18.0493C10 16.3925 8.65685 15.0493 7 15.0493H3C1.34315 15.0493 0 16.3925 0 18.0493C0 19.7062 1.34315 21.0493 3 21.0493H7C8.65685 21.0493 10 19.7062 10 18.0493Z" fill="#222222"/>
<path d="M83.3 21V11.22H85.74V13.18H85.52C85.8133 12.4733 86.2667 11.94 86.88 11.58C87.5067 11.2067 88.2133 11.02 89 11.02C89.7867 11.02 90.4333 11.1667 90.94 11.46C91.4467 11.7533 91.8267 12.2 92.08 12.8C92.3333 13.3867 92.46 14.1333 92.46 15.04V21H89.96V15.16C89.96 14.6533 89.8933 14.24 89.76 13.92C89.64 13.6 89.4467 13.3667 89.18 13.22C88.9267 13.06 88.6 12.98 88.2 12.98C87.72 12.98 87.3 13.0867 86.94 13.3C86.58 13.5 86.3 13.7933 86.1 14.18C85.9 14.5533 85.8 14.9933 85.8 15.5V21H83.3ZM100.019 21.2C98.9126 21.2 97.9592 20.9933 97.1592 20.58C96.3592 20.1667 95.7392 19.58 95.2992 18.82C94.8726 18.06 94.6592 17.16 94.6592 16.12C94.6592 15.1067 94.8659 14.22 95.2792 13.46C95.7059 12.7 96.2859 12.1067 97.0192 11.68C97.7659 11.24 98.6126 11.02 99.5592 11.02C100.493 11.02 101.293 11.22 101.959 11.62C102.626 12.02 103.139 12.5867 103.499 13.32C103.873 14.0533 104.059 14.9267 104.059 15.94V16.68H96.6792V15.24H102.299L101.979 15.54C101.979 14.6333 101.779 13.94 101.379 13.46C100.979 12.9667 100.406 12.72 99.6592 12.72C99.0992 12.72 98.6192 12.8533 98.2192 13.12C97.8326 13.3733 97.5326 13.74 97.3192 14.22C97.1192 14.6867 97.0192 15.2467 97.0192 15.9V16.04C97.0192 16.7733 97.1326 17.38 97.3592 17.86C97.5859 18.34 97.9259 18.7 98.3792 18.94C98.8326 19.18 99.3926 19.3 100.059 19.3C100.606 19.3 101.153 19.22 101.699 19.06C102.246 18.8867 102.746 18.62 103.199 18.26L103.899 19.94C103.433 20.3267 102.846 20.6333 102.139 20.86C101.433 21.0867 100.726 21.2 100.019 21.2ZM109.819 21.2C109.272 21.2 108.739 21.1533 108.219 21.06C107.712 20.9667 107.246 20.84 106.819 20.68C106.392 20.5067 106.019 20.2933 105.699 20.04L106.339 18.4C106.672 18.6133 107.032 18.8 107.419 18.96C107.806 19.12 108.206 19.24 108.619 19.32C109.032 19.4 109.439 19.44 109.839 19.44C110.479 19.44 110.952 19.3333 111.259 19.12C111.579 18.8933 111.739 18.6 111.739 18.24C111.739 17.9333 111.632 17.7 111.419 17.54C111.219 17.3667 110.912 17.24 110.499 17.16L108.499 16.78C107.672 16.62 107.039 16.32 106.599 15.88C106.172 15.4267 105.959 14.8467 105.959 14.14C105.959 13.5 106.132 12.9467 106.479 12.48C106.839 12.0133 107.332 11.6533 107.959 11.4C108.586 11.1467 109.306 11.02 110.119 11.02C110.586 11.02 111.039 11.0667 111.479 11.16C111.919 11.24 112.332 11.3667 112.719 11.54C113.119 11.7 113.466 11.9133 113.759 12.18L113.079 13.82C112.826 13.6067 112.532 13.4267 112.199 13.28C111.866 13.12 111.519 13 111.159 12.92C110.812 12.8267 110.472 12.78 110.139 12.78C109.486 12.78 108.999 12.8933 108.679 13.12C108.372 13.3467 108.219 13.6467 108.219 14.02C108.219 14.3 108.312 14.5333 108.499 14.72C108.686 14.9067 108.972 15.0333 109.359 15.1L111.359 15.48C112.226 15.64 112.879 15.9333 113.319 16.36C113.772 16.7867 113.999 17.36 113.999 18.08C113.999 18.7333 113.826 19.2933 113.479 19.76C113.132 20.2267 112.646 20.5867 112.019 20.84C111.392 21.08 110.659 21.2 109.819 21.2ZM120.587 21.2C119.28 21.2 118.307 20.8733 117.667 20.22C117.027 19.5667 116.707 18.6133 116.707 17.36V13.1H114.827V11.22H116.707V8.3H119.207V11.22H122.167V13.1H119.207V17.22C119.207 17.86 119.347 18.34 119.627 18.66C119.907 18.98 120.36 19.14 120.987 19.14C121.174 19.14 121.367 19.12 121.567 19.08C121.767 19.0267 121.974 18.9733 122.187 18.92L122.567 20.76C122.327 20.8933 122.02 21 121.647 21.08C121.287 21.16 120.934 21.2 120.587 21.2ZM128.705 21.2C127.598 21.2 126.645 20.9933 125.845 20.58C125.045 20.1667 124.425 19.58 123.985 18.82C123.558 18.06 123.345 17.16 123.345 16.12C123.345 15.1067 123.552 14.22 123.965 13.46C124.392 12.7 124.972 12.1067 125.705 11.68C126.452 11.24 127.298 11.02 128.245 11.02C129.178 11.02 129.978 11.22 130.645 11.62C131.312 12.02 131.825 12.5867 132.185 13.32C132.558 14.0533 132.745 14.9267 132.745 15.94V16.68H125.365V15.24H130.985L130.665 15.54C130.665 14.6333 130.465 13.94 130.065 13.46C129.665 12.9667 129.092 12.72 128.345 12.72C127.785 12.72 127.305 12.8533 126.905 13.12C126.518 13.3733 126.218 13.74 126.005 14.22C125.805 14.6867 125.705 15.2467 125.705 15.9V16.04C125.705 16.7733 125.818 17.38 126.045 17.86C126.272 18.34 126.612 18.7 127.065 18.94C127.518 19.18 128.078 19.3 128.745 19.3C129.292 19.3 129.838 19.22 130.385 19.06C130.932 18.8867 131.432 18.62 131.885 18.26L132.585 19.94C132.118 20.3267 131.532 20.6333 130.825 20.86C130.118 21.0867 129.412 21.2 128.705 21.2ZM134.925 21V11.22H137.365V13.58H137.165C137.352 12.78 137.718 12.1733 138.265 11.76C138.812 11.3333 139.538 11.0867 140.445 11.02L141.205 10.96L141.365 13.08L139.925 13.22C139.112 13.3 138.498 13.5533 138.085 13.98C137.672 14.3933 137.465 14.98 137.465 15.74V21H134.925ZM83.34 41V31.22H85.78V33.18H85.56C85.7333 32.7267 85.9733 32.34 86.28 32.02C86.5867 31.7 86.9533 31.4533 87.38 31.28C87.8067 31.1067 88.28 31.02 88.8 31.02C89.5867 31.02 90.2333 31.2067 90.74 31.58C91.2467 31.9533 91.6 32.5267 91.8 33.3H91.52C91.7867 32.5933 92.2267 32.04 92.84 31.64C93.4533 31.2267 94.16 31.02 94.96 31.02C95.7067 31.02 96.32 31.1667 96.8 31.46C97.2933 31.7533 97.66 32.2 97.9 32.8C98.14 33.3867 98.26 34.1333 98.26 35.04V41H95.76V35.14C95.76 34.3933 95.6333 33.8467 95.38 33.5C95.14 33.1533 94.7267 32.98 94.14 32.98C93.7133 32.98 93.34 33.0867 93.02 33.3C92.7 33.5 92.4533 33.7933 92.28 34.18C92.12 34.5667 92.04 35.0333 92.04 35.58V41H89.54V35.14C89.54 34.3933 89.4133 33.8467 89.16 33.5C88.92 33.1533 88.5133 32.98 87.94 32.98C87.5 32.98 87.12 33.0867 86.8 33.3C86.4933 33.5 86.2533 33.7933 86.08 34.18C85.92 34.5667 85.84 35.0333 85.84 35.58V41H83.34ZM100.879 29.12V26.68H103.679V29.12H100.879ZM101.039 41V31.22H103.539V41H101.039ZM106.337 41V31.22H108.777V33.18H108.557C108.85 32.4733 109.303 31.94 109.917 31.58C110.543 31.2067 111.25 31.02 112.037 31.02C112.823 31.02 113.47 31.1667 113.977 31.46C114.483 31.7533 114.863 32.2 115.117 32.8C115.37 33.3867 115.497 34.1333 115.497 35.04V41H112.997V35.16C112.997 34.6533 112.93 34.24 112.797 33.92C112.677 33.6 112.483 33.3667 112.217 33.22C111.963 33.06 111.637 32.98 111.237 32.98C110.757 32.98 110.337 33.0867 109.977 33.3C109.617 33.5 109.337 33.7933 109.137 34.18C108.937 34.5533 108.837 34.9933 108.837 35.5V41H106.337ZM121.996 41.2C121.143 41.2 120.389 40.9933 119.736 40.58C119.096 40.1667 118.596 39.58 118.236 38.82C117.876 38.0467 117.696 37.14 117.696 36.1C117.696 35.0467 117.876 34.1467 118.236 33.4C118.596 32.64 119.096 32.0533 119.736 31.64C120.389 31.2267 121.143 31.02 121.996 31.02C122.809 31.02 123.516 31.22 124.116 31.62C124.729 32.02 125.143 32.5467 125.356 33.2H125.136V26.9H127.636V41H125.196V38.92H125.376C125.176 39.6133 124.769 40.1667 124.156 40.58C123.543 40.9933 122.823 41.2 121.996 41.2ZM122.696 39.3C123.443 39.3 124.043 39.0333 124.496 38.5C124.949 37.9533 125.176 37.1533 125.176 36.1C125.176 35.0333 124.949 34.24 124.496 33.72C124.043 33.1867 123.443 32.92 122.696 32.92C121.949 32.92 121.349 33.1867 120.896 33.72C120.443 34.24 120.216 35.0333 120.216 36.1C120.216 37.1533 120.443 37.9533 120.896 38.5C121.349 39.0333 121.949 39.3 122.696 39.3ZM130.208 41V38.22H133.008V41H130.208Z" fill="#222222"/>
</svg>
