<svg xmlns="http://www.w3.org/2000/svg" width="168" height="38.845" viewBox="0 0 168 38.845"><g id="smg_logo_horiz_rgb" transform="translate(-192.9 -231.2)"><g id="Group_80" data-name="Group 80" transform="translate(299.075 234.493)"><path id="Path_399" data-name="Path 399" d="M504.5,242.357a1.165,1.165,0,0,0-.7.444,1.627,1.627,0,0,0-.222.925,2.079,2.079,0,0,0,.111.74,1.2,1.2,0,0,0,.37.481,2.355,2.355,0,0,0,.74.3l1.517.37a5.978,5.978,0,0,1,.629.222.509.509,0,0,1,.222.481.59.59,0,0,1-.148.444c-.074.111-.259.148-.481.185a6.3,6.3,0,0,1-.925.037h-1.295a2.8,2.8,0,0,1-.555-.037l-.074.74c.481.074.888.111,1.295.148.407,0,.7.037.888.037a6.241,6.241,0,0,0,1.295-.111,1.357,1.357,0,0,0,.777-.444,1.793,1.793,0,0,0,.259-1,1.4,1.4,0,0,0-.3-1,1.959,1.959,0,0,0-.962-.481l-1.517-.37a1.8,1.8,0,0,1-.592-.222.617.617,0,0,1-.185-.518.643.643,0,0,1,.111-.444.592.592,0,0,1,.407-.148,4.5,4.5,0,0,1,.777-.037h1.036c.333,0,.7.037,1.036.037l.074-.74a4.555,4.555,0,0,0-.74-.074,5.99,5.99,0,0,0-.814-.037c-.259,0-.518-.037-.777-.037a5.858,5.858,0,0,0-1.258.111m-5.549,0a1.165,1.165,0,0,0-.7.444,1.627,1.627,0,0,0-.222.925,2.079,2.079,0,0,0,.111.74,1.2,1.2,0,0,0,.37.481,2.356,2.356,0,0,0,.74.3l1.517.37a5.983,5.983,0,0,1,.629.222.509.509,0,0,1,.222.481.59.59,0,0,1-.148.444c-.074.111-.259.148-.481.185a6.3,6.3,0,0,1-.925.037h-1.295a2.8,2.8,0,0,1-.555-.037l-.074.74c.481.074.888.111,1.295.148s.7.037.888.037a6.24,6.24,0,0,0,1.295-.111,1.357,1.357,0,0,0,.777-.444,1.793,1.793,0,0,0,.259-1,1.4,1.4,0,0,0-.3-1,1.959,1.959,0,0,0-.962-.481l-1.517-.37a1.8,1.8,0,0,1-.592-.222.617.617,0,0,1-.185-.518.642.642,0,0,1,.111-.444.592.592,0,0,1,.407-.148,4.5,4.5,0,0,1,.777-.037h1.036c.333,0,.7.037,1.036.037l.074-.74a4.554,4.554,0,0,0-.74-.074,5.99,5.99,0,0,0-.814-.037c-.259,0-.518-.037-.777-.037a5.858,5.858,0,0,0-1.258.111m-2.923-2.257a.294.294,0,0,0-.333.333v.629a.294.294,0,0,0,.333.333h.481a.294.294,0,0,0,.333-.333v-.629a.294.294,0,0,0-.333-.333Zm-.259,7.658H496.8v-5.364h-1.036Zm-2.183-5.364-1.036,3.884a1.906,1.906,0,0,0-.074.407c-.037.148-.037.259-.074.407h-.185a1.906,1.906,0,0,1-.074-.407,1.573,1.573,0,0,1-.074-.407l-.814-3.515a.6.6,0,0,0-.148-.259.336.336,0,0,0-.259-.111h-.888a.336.336,0,0,0-.259.111.32.32,0,0,0-.111.222l-.851,3.552c-.037.148-.074.3-.111.407-.037.148-.074.259-.111.407h-.148c-.037-.148-.037-.3-.074-.407a1.573,1.573,0,0,1-.074-.407l-1.036-3.884h-1.11l1.517,5.068a.774.774,0,0,0,.148.222.535.535,0,0,0,.259.074h.888a.336.336,0,0,0,.259-.111.773.773,0,0,0,.148-.222l.814-3.552c.037-.148.074-.3.111-.407a1.857,1.857,0,0,0,.074-.444h.148l.111.444c.037.148.037.3.074.407l.814,3.552a.25.25,0,0,0,.148.222.336.336,0,0,0,.259.111h.925a.535.535,0,0,0,.259-.074.34.34,0,0,0,.148-.222l1.517-5.068Zm-12.06-.037a1.165,1.165,0,0,0-.7.444,1.627,1.627,0,0,0-.222.925,2.079,2.079,0,0,0,.111.74,1.2,1.2,0,0,0,.37.481,2.356,2.356,0,0,0,.74.3l1.517.37a5.983,5.983,0,0,1,.629.222.509.509,0,0,1,.222.481.59.59,0,0,1-.148.444c-.074.111-.259.148-.481.185a6.3,6.3,0,0,1-.925.037H481.34a2.8,2.8,0,0,1-.555-.037l-.074.74c.481.074.888.111,1.295.148.407,0,.7.037.888.037a6.241,6.241,0,0,0,1.295-.111,1.357,1.357,0,0,0,.777-.444,1.793,1.793,0,0,0,.259-1,1.4,1.4,0,0,0-.3-1,1.959,1.959,0,0,0-.962-.481l-1.517-.37a1.8,1.8,0,0,1-.592-.222.617.617,0,0,1-.185-.518.642.642,0,0,1,.111-.444.592.592,0,0,1,.407-.148,4.5,4.5,0,0,1,.777-.037H484c.333,0,.7.037,1.036.037l.074-.74a4.556,4.556,0,0,0-.74-.074,5.991,5.991,0,0,0-.814-.037c-.259,0-.518-.037-.777-.037a5.858,5.858,0,0,0-1.258.111" transform="translate(-480.341 -240.1)" fill="#46a5a5"></path><g id="Group_78" data-name="Group 78" transform="translate(0.259 10.913)"><path id="Path_400" data-name="Path 400" d="M487.222,275.6a2.436,2.436,0,0,0-1.11.259,3.948,3.948,0,0,0-1.036.7,1.487,1.487,0,0,0-.3-.592,1.4,1.4,0,0,0-1.073-.37,2.234,2.234,0,0,0-1.11.259,4.28,4.28,0,0,0-1.036.7l-.074-.851H480.6v5.364h1.073v-3.847c.222-.148.444-.3.629-.407a1.874,1.874,0,0,1,.555-.259,2.182,2.182,0,0,1,.518-.074.728.728,0,0,1,.592.222.943.943,0,0,1,.185.7v3.736h1.036V277.3c.222-.148.444-.3.592-.407a1.874,1.874,0,0,1,.555-.259,1.176,1.176,0,0,1,.518-.074.681.681,0,0,1,.592.222,1.1,1.1,0,0,1,.185.666v3.736H488.7v-4.032a1.494,1.494,0,0,0-.37-1.11A1.287,1.287,0,0,0,487.222,275.6Z" transform="translate(-480.6 -273.38)" fill="#46a5a5"></path><path id="Path_401" data-name="Path 401" d="M524.835,275.859a6.151,6.151,0,0,0-1.11.7l-.111-.851H522.8v5.364h1.073v-3.847c.407-.185.74-.333,1.036-.444a2.745,2.745,0,0,1,.925-.185h.333l.111-1h-.259A2.859,2.859,0,0,0,524.835,275.859Z" transform="translate(-507.188 -273.38)" fill="#46a5a5"></path><path id="Path_402" data-name="Path 402" d="M537.638,274.52l-.185-.185V274.3l.185-.185a.98.98,0,0,0,.185-.222l1.628-1.961h-1.221l-1.628,1.961h-.7c0-.074.037-.185.037-.259a3.592,3.592,0,0,0,.037-.666V269.6H534.9v7.732h1.073v-1.813a3.178,3.178,0,0,0-.037-.592.723.723,0,0,0-.037-.259h.7l1.776,2.664H539.6l-1.813-2.553A.6.6,0,0,0,537.638,274.52Z" transform="translate(-514.812 -269.6)" fill="#46a5a5"></path><path id="Path_403" data-name="Path 403" d="M637.536,280.3a8.376,8.376,0,0,1-.925.037,2.389,2.389,0,0,1-.962-.148.927.927,0,0,1-.518-.592,2.891,2.891,0,0,1-.148-.7h2.368a1.232,1.232,0,0,0,1.036-.407,1.476,1.476,0,0,0,.3-1.11,1.6,1.6,0,0,0-.555-1.332,2.9,2.9,0,0,0-1.813-.444,3.25,3.25,0,0,0-1.443.259,1.6,1.6,0,0,0-.814.888,4.131,4.131,0,0,0-.259,1.665,4.053,4.053,0,0,0,.259,1.628,1.879,1.879,0,0,0,.851.925,3.45,3.45,0,0,0,1.517.3,5.213,5.213,0,0,0,.74-.037l.777-.111a2.131,2.131,0,0,0,.629-.185l-.111-.7A6.232,6.232,0,0,1,637.536,280.3Zm-2-3.7a2.022,2.022,0,0,1,.888-.148,1.6,1.6,0,0,1,.962.222.839.839,0,0,1,.3.7,1.181,1.181,0,0,1-.111.518c-.074.148-.222.222-.481.222h-2.109a2.988,2.988,0,0,1,.111-.925A.837.837,0,0,1,635.539,276.6Z" transform="translate(-577.124 -273.38)" fill="#46a5a5"></path><path id="Path_404" data-name="Path 404" d="M509.721,275.748a2.917,2.917,0,0,0-1.036-.148,7.739,7.739,0,0,0-.888.037c-.333.037-.629.037-.925.074s-.592.074-.814.111l.111.777c.407-.037.814-.074,1.258-.074.407-.037.777-.037,1.036-.037a1.069,1.069,0,0,1,.814.222.9.9,0,0,1,.222.666v.444h-2.183a1.5,1.5,0,0,0-1.11.37,1.253,1.253,0,0,0-.407,1v.592a1.407,1.407,0,0,0,.222.814,1.346,1.346,0,0,0,.592.518,2.055,2.055,0,0,0,.851.185,1.882,1.882,0,0,0,.814-.148,2.453,2.453,0,0,0,.7-.333,3.159,3.159,0,0,0,.518-.407l.111-.111.111.888h.851V277.45a2.205,2.205,0,0,0-.222-1.073A1.055,1.055,0,0,0,509.721,275.748Zm-.592,4.106a7.4,7.4,0,0,1-.777.37,2.513,2.513,0,0,1-.7.111.979.979,0,0,1-.629-.185.8.8,0,0,1-.185-.592v-.333a.783.783,0,0,1,.148-.518.671.671,0,0,1,.518-.185h1.961v1.036A.874.874,0,0,1,509.13,279.854Z" transform="translate(-496.477 -273.38)" fill="#46a5a5"></path><path id="Path_405" data-name="Path 405" d="M623.437,280.3c-.222,0-.407.037-.555.037h-.444a2.28,2.28,0,0,1-.962-.148,1.039,1.039,0,0,1-.518-.592,3.414,3.414,0,0,1-.148-1.184,3.549,3.549,0,0,1,.148-1.184.927.927,0,0,1,.518-.592,2.28,2.28,0,0,1,.962-.148h.7c.259,0,.518.037.777.037l.148-.666a2.774,2.774,0,0,0-.592-.148,4.12,4.12,0,0,0-.629-.074c-.185,0-.37-.037-.555-.037a3.5,3.5,0,0,0-1.517.259,1.6,1.6,0,0,0-.814.888,5.482,5.482,0,0,0,0,3.33,1.742,1.742,0,0,0,.814.888,3.5,3.5,0,0,0,1.517.259,9.066,9.066,0,0,0,1-.074,3.122,3.122,0,0,0,.888-.222l-.111-.7C623.844,280.261,623.659,280.261,623.437,280.3Z" transform="translate(-568.24 -273.38)" fill="#46a5a5"></path><path id="Path_406" data-name="Path 406" d="M580.745,275.6a3.3,3.3,0,0,0-.814.111,2.519,2.519,0,0,0-.777.37,2.582,2.582,0,0,0-.592.481l-.074-.851H577.6v7.584h1.073v-2.146c0-.148-.037-.333-.037-.481a2.943,2.943,0,0,0,.925.407,3.342,3.342,0,0,0,1.036.148,2.109,2.109,0,0,0,1.147-.259,1.673,1.673,0,0,0,.666-.888,5.02,5.02,0,0,0,.222-1.665,4.067,4.067,0,0,0-.444-2.109A1.591,1.591,0,0,0,580.745,275.6Zm.629,4.032a.747.747,0,0,1-.407.555,1.323,1.323,0,0,1-.7.148,5.543,5.543,0,0,1-.814-.074c-.259-.074-.518-.148-.814-.222v-2.775a7.351,7.351,0,0,1,.888-.592,2.165,2.165,0,0,1,.814-.185,1.278,1.278,0,0,1,.666.185,1.167,1.167,0,0,1,.37.592,6.364,6.364,0,0,1,0,2.368Z" transform="translate(-541.715 -273.38)" fill="#46a5a5"></path><path id="Path_407" data-name="Path 407" d="M553.587,278.486a1.476,1.476,0,0,0,.3-1.11,1.6,1.6,0,0,0-.555-1.332,2.9,2.9,0,0,0-1.813-.444,3.25,3.25,0,0,0-1.443.259,1.6,1.6,0,0,0-.814.888,4.131,4.131,0,0,0-.259,1.665,4.053,4.053,0,0,0,.259,1.628,1.878,1.878,0,0,0,.851.925,3.45,3.45,0,0,0,1.517.3,5.211,5.211,0,0,0,.74-.037l.777-.111a2.131,2.131,0,0,0,.629-.185l-.111-.7c-.3.037-.592.074-.962.111a8.724,8.724,0,0,1-.925.037,2.39,2.39,0,0,1-.962-.148,1.039,1.039,0,0,1-.518-.592,2.894,2.894,0,0,1-.148-.7h2.368A1.7,1.7,0,0,0,553.587,278.486Zm-3.477-.37a2.984,2.984,0,0,1,.111-.925.77.77,0,0,1,.444-.555,2.021,2.021,0,0,1,.888-.148,1.6,1.6,0,0,1,.962.222.839.839,0,0,1,.3.7,1.182,1.182,0,0,1-.111.518c-.074.148-.222.222-.481.222H550.11Z" transform="translate(-523.696 -273.38)" fill="#46a5a5"></path><path id="Path_408" data-name="Path 408" d="M596.476,276.481a.642.642,0,0,1-.7-.7V269.6H594.7v6.437a1.371,1.371,0,0,0,.37,1.036,1.5,1.5,0,0,0,1,.37h.333c.148,0,.259-.037.407-.037.111-.037.222-.037.3-.074l-.111-.777h-.518Z" transform="translate(-552.489 -269.6)" fill="#46a5a5"></path><path id="Path_409" data-name="Path 409" d="M566.635,271.7h-1.073v1.591l-.962.037v.74h.962v3.219a1.4,1.4,0,0,0,.37,1.073,1.371,1.371,0,0,0,1.036.37h.37c.148,0,.333-.037.481-.037.148-.037.3-.037.407-.074l-.111-.777h-.777a.768.768,0,0,1-.555-.148.723.723,0,0,1-.148-.518V274.1H568.3v-.777h-1.665Z" transform="translate(-533.524 -270.923)" fill="#46a5a5"></path><path id="Path_410" data-name="Path 410" d="M607.121,275.748a2.918,2.918,0,0,0-1.036-.148,7.738,7.738,0,0,0-.888.037c-.333.037-.629.037-.925.074s-.592.074-.814.111l.111.777c.407-.037.814-.074,1.258-.074s.777-.037,1.036-.037a1.069,1.069,0,0,1,.814.222.9.9,0,0,1,.222.666v.444h-2.183a1.5,1.5,0,0,0-1.11.37,1.253,1.253,0,0,0-.407,1v.592a1.407,1.407,0,0,0,.222.814,1.346,1.346,0,0,0,.592.518,2.056,2.056,0,0,0,.851.185,1.882,1.882,0,0,0,.814-.148,2.452,2.452,0,0,0,.7-.333,3.154,3.154,0,0,0,.518-.407l.111-.111.111.888h.851V277.45a2.2,2.2,0,0,0-.222-1.073A.97.97,0,0,0,607.121,275.748Zm-.555,4.106a7.4,7.4,0,0,1-.777.37,2.513,2.513,0,0,1-.7.111.98.98,0,0,1-.629-.185.8.8,0,0,1-.185-.592v-.333a.783.783,0,0,1,.148-.518.671.671,0,0,1,.518-.185H606.9v1.036A2.392,2.392,0,0,1,606.566,279.854Z" transform="translate(-557.844 -273.38)" fill="#46a5a5"></path></g><g id="Group_79" data-name="Group 79" transform="translate(0 24.047)"><path id="Path_411" data-name="Path 411" d="M482.49,305.2a4.613,4.613,0,0,0-1.406.185,1.283,1.283,0,0,0-.74.555,2,2,0,0,0-.222,1,1.851,1.851,0,0,0,.222.962,1.229,1.229,0,0,0,.518.444.865.865,0,0,0-.259.259,1.855,1.855,0,0,0-.185.481,1.065,1.065,0,0,0,.037.481,1.038,1.038,0,0,0,.3.444.036.036,0,0,1,.037.037c-.148.074-.3.185-.444.259a.8.8,0,0,0-.333.444,1.409,1.409,0,0,0-.111.592,1.716,1.716,0,0,0,.148.777,1,1,0,0,0,.444.518,2.107,2.107,0,0,0,.814.259,11.523,11.523,0,0,0,1.258.074,6.136,6.136,0,0,0,1.554-.148,1.309,1.309,0,0,0,.814-.518,1.99,1.99,0,0,0,.259-1,1.645,1.645,0,0,0-.3-1.036,1.621,1.621,0,0,0-1.073-.481l-2-.3a.544.544,0,0,1-.444-.259.509.509,0,0,1-.037-.407l.111-.222a4.553,4.553,0,0,0,1.073.111,4.791,4.791,0,0,0,1.406-.185,1.284,1.284,0,0,0,.74-.555,1.946,1.946,0,0,0,.222-.962,1.851,1.851,0,0,0-.222-.962l.777-.074.037-.555h-1.739A2.732,2.732,0,0,0,482.49,305.2Zm1.258,5.364a.324.324,0,0,1,.259.222.99.99,0,0,1,.074.407.723.723,0,0,1-.148.518.749.749,0,0,1-.481.259,5.965,5.965,0,0,1-.962.074,6.92,6.92,0,0,1-1-.074.618.618,0,0,1-.481-.259,1,1,0,0,1-.148-.555,1.33,1.33,0,0,1,.074-.407.874.874,0,0,1,.222-.333l.222-.222,1.739.222C483.452,310.49,483.636,310.527,483.747,310.564Zm-.222-2.923a2.7,2.7,0,0,1-2.146,0,1.073,1.073,0,0,1,0-1.48,1.849,1.849,0,0,1,1.073-.222,1.932,1.932,0,0,1,1.073.222.868.868,0,0,1,.3.74A.918.918,0,0,1,483.526,307.642Z" transform="translate(-479.9 -305.163)" fill="#46a5a5"></path><path id="Path_412" data-name="Path 412" d="M547.95,305.84a1.556,1.556,0,0,0-1.406-.74,3.082,3.082,0,0,0-.814.111,2.518,2.518,0,0,0-.777.37,2.582,2.582,0,0,0-.592.481l-.074-.851H543.4v7.621h1.073v-2.146c0-.148-.037-.333-.037-.481a2.944,2.944,0,0,0,.925.407,3.343,3.343,0,0,0,1.036.148,2.109,2.109,0,0,0,1.147-.259,1.673,1.673,0,0,0,.666-.888,5.022,5.022,0,0,0,.222-1.665A4.67,4.67,0,0,0,547.95,305.84Zm-.777,3.33a.747.747,0,0,1-.407.555,1.323,1.323,0,0,1-.7.148,5.543,5.543,0,0,1-.814-.074c-.259-.074-.518-.111-.814-.222V306.8a7.352,7.352,0,0,1,.888-.592,2.165,2.165,0,0,1,.814-.185,1.278,1.278,0,0,1,.666.185,1.167,1.167,0,0,1,.37.592,6.371,6.371,0,0,1,0,2.368Z" transform="translate(-519.908 -305.1)" fill="#46a5a5"></path><path id="Path_413" data-name="Path 413" d="M530.062,309.484a8.7,8.7,0,0,1-.925.518,1.774,1.774,0,0,1-.851.185.909.909,0,0,1-.629-.185,1.1,1.1,0,0,1-.185-.666V305.6H526.4v4.032a1.3,1.3,0,0,0,1.48,1.48,2.63,2.63,0,0,0,1.184-.259,4.415,4.415,0,0,0,1.11-.666l.074.777h.851V305.6h-1.073v3.884Z" transform="translate(-509.197 -305.415)" fill="#46a5a5"></path><path id="Path_414" data-name="Path 414" d="M499.835,305.4a6.149,6.149,0,0,0-1.11.7l-.111-.851H497.8v5.364h1.073v-3.884c.407-.185.74-.333,1.036-.444a2.744,2.744,0,0,1,.925-.185h.333l.111-1h-.259A3.283,3.283,0,0,0,499.835,305.4Z" transform="translate(-491.178 -305.1)" fill="#46a5a5"></path><path id="Path_415" data-name="Path 415" d="M513.106,305.459a3.5,3.5,0,0,0-1.517-.259,3.6,3.6,0,0,0-1.517.259,1.482,1.482,0,0,0-.814.888,5.48,5.48,0,0,0,0,3.33,1.741,1.741,0,0,0,.814.888,4.571,4.571,0,0,0,3.034,0,1.6,1.6,0,0,0,.814-.888,4.9,4.9,0,0,0,.259-1.665,4.372,4.372,0,0,0-.259-1.665A1.741,1.741,0,0,0,513.106,305.459Zm-.185,3.737a.945.945,0,0,1-.444.592,2.223,2.223,0,0,1-1.776,0,.836.836,0,0,1-.444-.592,4.638,4.638,0,0,1-.148-1.184,3.416,3.416,0,0,1,.148-1.184.836.836,0,0,1,.444-.592,2.223,2.223,0,0,1,1.776,0,.919.919,0,0,1,.444.592,4.638,4.638,0,0,1,.148,1.184A6.729,6.729,0,0,1,512.921,309.2Z" transform="translate(-498.235 -305.163)" fill="#46a5a5"></path></g></g><rect id="Rectangle_183" data-name="Rectangle 183" width="0.629" height="38.845" transform="translate(291.343 231.2)" fill="#46a5a5"></rect><g id="Group_81" data-name="Group 81" transform="translate(192.9 234.848)"><path id="Path_416" data-name="Path 416" d="M294.519,264.644V251.252A9.895,9.895,0,0,0,276.91,245a9.895,9.895,0,0,0-17.609,6.252v13.392h4.4V251.252a5.512,5.512,0,1,1,11.024,0v13.466c3.145,0,4.4-.962,4.4-3.33v-10.1a5.512,5.512,0,1,1,11.024,0v13.392h4.365Z" transform="translate(-234.736 -241.212)" fill="#46a5a5"></path><path id="Path_417" data-name="Path 417" d="M388.518,263.1v-9.952a11.869,11.869,0,0,0-9.915-11.764,9.03,9.03,0,0,0-1.887-.185h0c-.37,0-.74.037-1.11.037A11.313,11.313,0,0,0,365.1,252.816c0,6.437,5.216,11.209,11.653,11.209a11.744,11.744,0,0,0,4.032-.851,18.252,18.252,0,0,0-1.036-2.812c-.592-1.332-1.11-.888-3-.888-4,0-7.214-2.664-7.214-6.659a7.043,7.043,0,0,1,2.331-5.253h0a7.576,7.576,0,0,1,4.883-1.924,7.485,7.485,0,0,1,7.4,7.473V263.1a7.1,7.1,0,0,1-7.4,7.436,7.514,7.514,0,0,1-5.512-2.442,6.756,6.756,0,0,1-.481-.592l-3.736,2.442a11.934,11.934,0,0,0,9.8,5.031c6.955.037,11.69-4.772,11.69-11.875" transform="translate(-301.395 -241.149)" fill="#46a5a5"></path><path id="Path_418" data-name="Path 418" d="M212.766,254.246a6.767,6.767,0,0,0-2.7-2.035c-2.072-.925-5.4-1.221-6.881-1.443-2.368-.37-5.66-.37-5.438-2.849.222-2.183,3.071-3.071,7.251-2.7a21.11,21.11,0,0,1,6.141,1.961c1.184-2.442,1.813-3.662,1.813-3.662h0c-.7-.37-1.369-.7-2.072-1.036a16.316,16.316,0,0,0-2.886-.962,22.743,22.743,0,0,0-2.738-.407,15.186,15.186,0,0,0-7.88,1.258,8.373,8.373,0,0,0-2.664,2.22c0,.037-.037.074-.074.111a5.6,5.6,0,0,0-1.11,4.18,5.448,5.448,0,0,0,3.367,4.55c1.887.925,4.032,1.11,6.585,1.406,2.738.333,6.067.777,6.03,3-.037,1.813-2.849,3.108-7.288,2.849a9.411,9.411,0,0,1-6.289-2.96c-1,.925-2,1.85-3.034,2.738a8.7,8.7,0,0,0,1.11,1.221,13.647,13.647,0,0,0,7.843,3.108,15.287,15.287,0,0,0,8.1-1.332,6.393,6.393,0,0,0,3.81-5.438,6.3,6.3,0,0,0-1-3.773" transform="translate(-192.9 -241.062)" fill="#46a5a5"></path></g></g></svg>